<?xml version="1.0" standalone="no"?>
<!DOCTYPE svg PUBLIC "-//W3C//DTD SVG 20010904//EN"
 "http://www.w3.org/TR/2001/REC-SVG-20010904/DTD/svg10.dtd">
<svg version="1.0" xmlns="http://www.w3.org/2000/svg"
 width="200.000000pt" height="200.000000pt" viewBox="0 0 200.000000 200.000000"
 preserveAspectRatio="xMidYMid meet">
<metadata>
Created by potrace 1.10, written by Peter Selinger 2001-2011
</metadata>
<g transform="translate(0.000000,200.000000) scale(0.100000,-0.100000)"
fill="#000000" stroke="none">
<path d="M1058 1923 c-31 -5 -38 -23 -9 -23 23 0 35 -28 21 -45 -6 -8 -7 -16
-2 -19 10 -6 72 66 72 83 0 11 -28 12 -82 4z"/>
<path d="M974 1888 c-6 -13 -106 -209 -222 -436 -117 -228 -212 -420 -212
-428 0 -13 30 -15 205 -12 113 2 205 1 205 -2 0 -3 -22 -20 -48 -37 -126 -87
-502 -370 -507 -382 -3 -8 -2 -18 3 -23 4 -4 267 -7 583 -6 l574 3 3 203 c2
168 0 207 -13 233 -36 68 -139 91 -206 46 -93 -62 -90 -209 6 -257 41 -20 109
-16 150 9 l35 20 0 -114 0 -115 -552 0 c-519 0 -551 1 -528 17 125 84 550 408
550 419 0 11 -39 14 -214 16 l-214 3 67 122 c36 67 131 253 211 412 80 160
147 290 150 290 3 1 27 -46 54 -104 27 -58 89 -179 137 -268 49 -89 89 -165
89 -169 0 -5 -63 -8 -140 -8 -118 0 -140 -2 -140 -15 0 -13 24 -15 154 -15 95
0 157 4 161 10 4 6 -24 68 -62 138 -37 70 -106 204 -153 297 -47 94 -92 171
-100 173 -8 1 -20 -8 -26 -20z m506 -863 c39 -20 50 -43 50 -103 0 -86 -68
-138 -151 -113 -58 17 -82 54 -77 118 5 54 25 88 63 104 32 13 84 10 115 -6z"/>
<path d="M1118 1839 c-32 -16 -51 -39 -33 -39 13 0 95 45 95 52 0 13 -22 8
-62 -13z"/>
<path d="M1145 1760 c-16 -17 -16 -24 -4 -65 10 -33 16 -41 22 -30 4 8 16 15
26 15 21 0 51 30 51 52 0 21 -32 48 -57 48 -11 0 -28 -9 -38 -20z m69 -16 c4
-9 1 -23 -5 -30 -14 -16 -39 -19 -39 -3 0 5 -4 7 -10 4 -14 -9 -12 19 2 33 17
17 45 15 52 -4z"/>
<path d="M1213 1668 c-18 -11 -33 -26 -33 -35 0 -27 20 -53 41 -53 23 0 79 30
79 42 0 13 -24 9 -48 -8 -25 -17 -52 -13 -52 9 0 7 16 21 35 30 19 9 35 21 35
27 0 15 -21 11 -57 -12z"/>
<path d="M1320 1539 c15 -28 11 -30 -34 -18 -21 6 -41 8 -44 5 -3 -4 2 -23 12
-42 9 -20 19 -34 22 -31 3 3 1 14 -5 25 -16 30 -15 30 34 19 25 -6 48 -8 51
-5 8 8 -24 68 -37 68 -6 0 -6 -8 1 -21z"/>
<path d="M1328 1460 c-49 -27 -60 -44 -21 -36 25 6 31 3 36 -13 3 -14 -1 -22
-14 -26 -20 -7 -26 -25 -9 -25 19 0 90 40 90 50 0 13 -7 13 -30 0 -15 -8 -20
-6 -25 11 -5 15 -2 25 9 31 16 9 22 28 9 28 -5 -1 -25 -10 -45 -20z"/>
<path d="M1373 1357 c-41 -20 -55 -37 -33 -37 19 0 90 40 90 50 0 14 -9 12
-57 -13z"/>
<path d="M575 476 c-40 -22 -52 -45 -27 -54 8 -2 12 2 10 13 -2 10 3 20 10 22
6 3 12 -2 12 -11 0 -9 5 -16 11 -16 6 0 8 7 5 15 -3 9 1 18 9 20 51 16 50 16
35 25 -19 12 -17 12 -65 -14z"/>
<path d="M921 468 c5 -18 9 -34 9 -35 0 -2 -9 -3 -20 -3 -11 0 -20 -4 -20 -10
0 -5 9 -10 21 -10 39 0 13 -25 -29 -28 -44 -3 -59 -22 -18 -22 30 0 26 -27
-11 -66 -13 -14 -21 -29 -18 -33 4 -3 19 8 35 26 l28 32 79 -40 c74 -38 80
-39 118 -27 l40 12 -58 7 c-62 7 -137 36 -137 52 0 5 8 16 18 23 16 13 16 13
0 14 -25 0 -23 20 2 20 15 0 20 -7 20 -25 0 -14 -5 -25 -11 -25 -5 0 -7 -5 -3
-11 4 -8 9 -8 17 0 17 17 27 13 27 -9 0 -27 6 -25 35 8 23 27 24 27 39 7 13
-17 15 -18 16 -3 0 9 -4 20 -10 23 -5 3 -10 17 -10 30 0 13 5 27 10 30 24 15
9 27 -25 21 -27 -5 -35 -4 -35 8 0 8 8 20 18 25 15 9 15 10 1 11 -9 0 -30 -3
-46 -6 -26 -5 -28 -9 -25 -38 3 -26 0 -32 -17 -33 -12 -1 -21 4 -21 13 0 8 7
14 15 14 8 0 15 5 15 10 0 6 -6 10 -14 10 -10 0 -14 9 -13 27 1 19 -3 28 -15
31 -15 3 -16 -1 -7 -30z m149 -74 c0 -14 -3 -14 -15 -4 -17 14 -21 0 -4 -17 8
-8 7 -17 -4 -33 -14 -20 -14 -19 -15 25 -1 38 2 45 18 45 12 0 20 -7 20 -16z"/>
<path d="M1295 466 c-37 -10 -46 -15 -32 -20 13 -6 17 -20 17 -62 0 -47 -3
-54 -19 -54 -11 0 -23 -5 -26 -10 -9 -14 23 -24 38 -12 6 5 22 13 35 17 23 7
23 6 17 -39 -5 -31 -4 -46 4 -46 6 0 11 7 11 15 0 8 16 30 37 48 23 21 33 38
29 46 -6 9 -16 1 -35 -26 -25 -36 -26 -37 -29 -14 -2 13 2 28 10 32 10 7 11
11 0 17 -15 10 -8 95 8 100 11 4 3 23 -8 21 -4 0 -29 -7 -57 -13z m33 -68 c-2
-41 -7 -54 -20 -56 -11 -2 -18 3 -18 12 0 9 8 17 18 17 16 1 16 2 0 6 -10 2
-18 7 -18 10 0 3 8 12 18 19 16 13 16 13 0 14 -21 0 -13 30 9 30 11 0 13 -12
11 -52z"/>
<path d="M640 462 c0 -5 -9 -18 -20 -30 -16 -17 -32 -22 -69 -22 -50 0 -61 -9
-61 -48 0 -14 3 -13 18 4 23 29 62 41 62 20 0 -9 -8 -16 -19 -16 -11 0 -23 -4
-26 -10 -3 -5 3 -10 15 -10 20 0 21 -1 3 -24 -10 -13 -30 -32 -45 -43 -16 -10
-28 -21 -28 -25 0 -16 20 -7 53 22 37 32 52 37 62 20 4 -6 -11 -18 -32 -27
-26 -11 -33 -18 -21 -20 9 -2 30 3 47 12 29 15 33 14 60 -6 23 -17 36 -20 62
-14 l34 8 -55 18 c-30 10 -57 19 -59 19 -2 0 4 9 15 21 15 17 16 22 4 29 -8 5
-27 6 -44 3 -19 -4 -27 -2 -23 4 4 6 27 14 52 17 25 4 45 11 45 17 0 5 9 9 19
9 11 0 22 4 26 9 9 15 -27 30 -60 24 l-30 -5 23 19 c13 10 20 22 16 26 -10 9
-24 9 -24 -1z m28 -64 c-6 -18 -78 -29 -78 -12 0 15 16 22 53 23 19 1 27 -3
25 -11z"/>
<path d="M1398 453 c-25 -4 -26 -7 -21 -41 3 -20 6 -37 7 -38 1 -1 18 1 39 4
26 3 37 9 33 17 -2 7 2 22 9 33 22 31 8 36 -67 25z m40 -35 c-4 -29 -34 -36
-41 -9 -6 24 0 31 25 31 14 0 19 -6 16 -22z"/>
<path d="M1430 354 c0 -12 55 -72 62 -68 14 9 9 20 -18 48 -25 24 -44 33 -44
20z"/>
</g>
</svg>
