<?xml version="1.0" standalone="no"?>
<!DOCTYPE svg PUBLIC "-//W3C//DTD SVG 20010904//EN"
 "http://www.w3.org/TR/2001/REC-SVG-20010904/DTD/svg10.dtd">
<svg version="1.0" xmlns="http://www.w3.org/2000/svg"
 width="200.000000pt" height="200.000000pt" viewBox="0 0 200.000000 200.000000"
 preserveAspectRatio="xMidYMid meet">
<metadata>
Created by potrace 1.10, written by Peter Selinger 2001-2011
</metadata>
<g transform="translate(0.000000,200.000000) scale(0.100000,-0.100000)"
fill="#000000" stroke="none">
<path d="M763 1945 c-65 -18 -137 -54 -182 -92 -30 -26 -32 -30 -17 -42 10 -8
16 -9 16 -3 0 6 9 16 19 22 43 23 104 -38 81 -81 -6 -10 -16 -19 -22 -19 -8 0
-6 -7 5 -17 15 -15 18 -15 34 -1 30 26 99 57 142 64 l41 7 0 84 c0 69 3 84 14
80 8 -3 32 -11 55 -18 23 -7 43 -20 46 -31 4 -10 12 -18 20 -18 20 0 145 -74
145 -86 0 -6 -11 -21 -24 -33 l-23 -22 -36 48 c-43 59 -86 92 -109 84 -22 -8
-8 -33 58 -104 l52 -55 -30 -6 c-17 -3 -48 -6 -69 -6 l-39 0 0 70 c0 40 -4 70
-10 70 -9 0 -14 -20 -12 -41 1 -4 -8 -15 -18 -24 -18 -16 -20 -32 -20 -157 l0
-138 -71 0 -70 0 3 -135 c2 -74 0 -135 -3 -135 -21 0 -102 89 -126 138 -49
100 -34 236 35 315 14 16 13 19 -6 40 -26 28 -28 49 -5 45 21 -4 29 27 13 47
-18 21 -50 19 -50 -3 0 -31 -12 -33 -40 -7 l-27 26 -30 -38 c-90 -114 -123
-263 -89 -406 16 -66 22 -75 38 -59 15 15 38 16 38 2 0 -5 -11 -12 -25 -16
-14 -3 -25 -8 -25 -11 0 -10 24 -50 58 -97 l35 -48 28 32 c16 17 34 30 41 27
8 -2 2 -14 -19 -33 -18 -16 -33 -32 -33 -36 0 -12 132 -98 142 -92 4 3 8 14 8
25 0 13 7 19 21 19 19 0 19 -1 5 -16 -28 -27 -18 -41 37 -55 129 -32 310 -1
388 67 14 12 35 -5 180 -151 141 -142 169 -165 195 -165 38 0 74 36 74 75 0
23 -27 55 -147 178 -82 82 -159 153 -172 158 l-24 10 21 22 c32 34 70 125 81
193 54 344 -265 638 -596 549z m91 -29 c16 6 17 0 13 -50 -2 -31 -7 -59 -10
-63 -4 -3 -7 -1 -7 6 0 8 -6 11 -16 7 -9 -4 -22 -2 -29 4 -11 9 -12 6 -9 -12
2 -13 1 -17 -2 -10 -4 9 -9 10 -19 2 -19 -16 -75 -30 -75 -19 0 5 7 9 15 9 13
0 13 3 3 20 -7 10 -14 17 -17 15 -6 -6 -30 27 -31 43 0 6 3 11 8 11 21 -4 43
2 38 10 -5 8 31 19 77 24 9 1 17 5 17 10 0 5 6 4 14 -2 7 -6 21 -8 30 -5z
m371 -153 c-2 -16 7 -45 20 -68 31 -52 58 -133 52 -155 -2 -10 1 -17 9 -17 8
0 14 4 14 9 0 19 18 -3 22 -27 5 -21 2 -25 -21 -25 -22 -1 -24 -2 -8 -11 19
-11 25 -83 7 -94 -6 -4 -8 -11 -5 -16 4 -5 -10 -43 -29 -83 -20 -41 -36 -81
-36 -89 0 -8 27 -43 60 -77 33 -34 60 -67 60 -72 0 -5 5 -6 10 -3 6 3 10 -1
10 -9 0 -10 6 -13 17 -9 11 4 14 3 9 -5 -4 -7 -1 -15 8 -18 8 -3 18 -15 22
-26 3 -11 8 -17 11 -14 3 2 27 -18 54 -46 38 -39 49 -58 47 -77 -3 -22 -8 -26
-35 -27 -18 -1 -33 3 -33 8 0 4 -8 8 -17 8 -14 0 -15 2 -4 9 11 7 9 10 -7 15
-12 4 -24 16 -27 26 -4 11 -17 23 -31 26 -13 3 -22 10 -19 14 3 5 -7 18 -21
29 -15 12 -24 21 -20 21 4 0 1 6 -6 14 -7 7 -19 11 -26 9 -7 -3 -12 -1 -10 3
4 13 -38 65 -46 57 -3 -3 -6 0 -6 8 0 8 -15 26 -33 40 -25 20 -37 24 -56 18
-12 -5 -26 -7 -31 -4 -4 3 -11 -2 -14 -10 -6 -18 -32 -29 -130 -55 -40 -10
-79 -22 -88 -25 -13 -5 -17 0 -20 27 -2 21 -8 33 -18 33 -8 1 -14 6 -12 13 1
7 -3 12 -9 12 -7 0 -8 -7 -4 -17 18 -44 17 -53 -2 -53 -33 0 -83 21 -83 34 0
7 -10 21 -22 32 -12 10 -18 14 -15 8 8 -13 -40 -16 -49 -3 -2 4 -11 6 -18 3
-17 -6 -40 22 -30 37 4 8 3 9 -4 5 -7 -4 -12 -3 -12 3 0 5 7 14 16 19 13 7 13
11 -5 33 -16 19 -22 22 -32 12 -19 -19 -43 -16 -64 7 -10 11 -15 20 -12 20 4
0 3 11 -2 23 -5 13 -5 30 -1 37 9 15 -7 43 -19 35 -13 -8 -44 57 -45 96 0 22
-5 39 -11 40 -5 0 -1 4 10 9 11 5 15 9 8 9 -10 1 -9 59 2 96 1 6 3 14 3 18 0
4 8 19 17 33 9 14 14 32 11 40 -3 8 -2 12 3 9 5 -3 12 4 16 15 3 11 11 20 16
20 5 0 9 9 9 20 0 17 4 19 27 13 16 -4 35 -7 44 -7 17 0 15 -29 -5 -56 -9 -13
-8 -13 4 -3 10 8 21 9 30 3 13 -9 13 -10 0 -10 -21 0 -58 -91 -62 -152 -2 -21
-7 -38 -13 -38 -5 0 -3 -5 5 -10 9 -6 10 -10 3 -10 -13 0 -6 -67 9 -87 5 -7 7
-16 4 -21 -3 -5 3 -21 14 -35 11 -14 20 -29 20 -35 0 -15 92 -92 118 -99 27
-6 49 11 54 42 2 11 10 26 18 33 8 8 10 11 4 8 -9 -4 -12 19 -13 79 -1 70 1
85 14 85 8 0 15 -5 15 -11 0 -8 5 -8 15 1 19 15 20 -1 4 -32 -9 -17 -8 -24 6
-34 16 -12 15 -14 -9 -20 -32 -8 -35 -42 -5 -68 15 -13 18 -21 10 -29 -7 -7
-7 -14 0 -23 7 -9 4 -16 -11 -27 -18 -13 -19 -15 -5 -21 9 -3 25 -6 36 -6 11
0 31 -8 45 -17 20 -13 27 -14 34 -4 5 9 9 10 14 2 5 -8 12 -6 23 5 9 8 24 13
35 11 10 -3 16 -1 12 4 -3 5 2 9 11 9 23 0 82 43 109 79 13 17 27 27 31 23 5
-4 5 -2 2 5 -9 14 2 45 13 38 4 -3 10 4 13 15 3 13 1 18 -6 13 -8 -4 -8 -1 1
9 9 11 41 99 42 116 0 1 -9 2 -20 2 -13 0 -21 -9 -25 -27 -28 -132 -69 -193
-165 -240 -36 -17 -82 -34 -102 -38 -37 -6 -38 -5 -38 26 0 23 -4 30 -15 26
-8 -4 -17 -2 -20 3 -4 6 3 10 14 10 17 0 21 6 21 30 0 28 -3 30 -35 30 -19 0
-35 5 -35 10 0 6 16 10 35 10 32 0 35 2 35 30 0 23 -4 30 -20 30 -11 0 -20 5
-20 11 0 6 9 9 20 6 18 -5 20 0 20 39 l0 44 149 0 c142 0 197 10 132 25 -16 3
-32 13 -35 21 -4 11 -26 14 -96 14 l-90 0 0 54 0 53 49 1 c27 1 61 6 76 12 15
6 29 9 30 8 5 -9 35 -112 35 -124 0 -7 5 -16 12 -20 8 -5 9 -2 4 12 -6 16 -4
16 17 -4 20 -19 30 -21 70 -16 62 9 60 24 -3 24 -42 0 -50 3 -50 18 0 11 -9
45 -20 78 l-19 59 31 32 c17 18 36 29 41 26 6 -4 8 0 4 9 -5 14 0 28 9 28 1 0
1 -12 -1 -27z m-114 -51 c-6 -2 -11 -8 -11 -13 0 -6 5 -7 10 -4 6 3 10 2 10
-4 0 -5 -9 -9 -20 -8 -14 1 -19 6 -14 17 3 8 7 21 7 27 0 10 4 10 15 1 9 -8
10 -14 3 -16z"/>
<path d="M796 1162 c-10 -16 44 -62 73 -62 6 0 11 11 11 25 0 23 -4 25 -41 25
-24 0 -38 4 -34 10 3 6 4 10 1 10 -3 0 -7 -3 -10 -8z"/>
<path d="M688 673 c-10 -3 -18 -13 -18 -24 0 -26 42 -22 46 3 3 21 -4 26 -28
21z"/>
<path d="M1480 660 c0 -13 7 -20 20 -20 13 0 20 7 20 20 0 13 -7 20 -20 20
-13 0 -20 -7 -20 -20z"/>
<path d="M826 604 c-14 -7 -26 -9 -26 -3 0 5 -9 9 -20 9 -18 0 -20 -7 -20 -85
0 -78 2 -85 20 -85 18 0 20 7 20 59 0 62 14 86 46 79 22 -4 36 -53 28 -100 -5
-35 -4 -38 19 -38 24 0 24 1 19 73 -2 39 -9 77 -14 83 -15 19 -45 23 -72 8z"/>
<path d="M1003 610 c-56 -23 -69 -114 -22 -152 38 -32 146 -16 119 17 -9 11
-17 12 -32 4 -24 -13 -64 -4 -72 16 -4 12 5 15 54 15 59 0 60 0 60 29 0 54
-57 92 -107 71z m67 -50 c10 -19 8 -20 -35 -20 -46 0 -54 7 -33 28 19 19 56
14 68 -8z"/>
<path d="M1188 605 c-51 -28 -57 -116 -10 -151 23 -18 84 -17 108 0 30 23 6
39 -34 24 -29 -11 -34 -10 -54 10 l-22 22 67 0 c64 0 67 1 67 24 0 31 -37 74
-70 80 -14 3 -37 -1 -52 -9z m70 -37 c21 -21 13 -28 -33 -28 -43 0 -45 1 -35
20 12 22 49 27 68 8z"/>
<path d="M1410 600 c-18 -18 -24 -18 -21 3 0 4 -8 7 -19 7 -18 0 -20 -7 -20
-85 0 -78 2 -85 20 -85 17 0 20 7 20 53 0 55 12 77 42 77 13 0 18 8 18 25 0
30 -13 32 -40 5z"/>
<path d="M1640 611 c-8 -6 -27 -7 -42 -4 l-28 6 0 -87 c0 -79 2 -86 20 -86 16
0 19 8 22 61 3 65 19 88 52 76 12 -5 16 -20 16 -72 0 -58 2 -65 20 -65 18 0
20 7 20 74 0 66 -3 77 -22 90 -26 18 -37 19 -58 7z"/>
<path d="M1803 610 c-47 -19 -58 -92 -20 -128 25 -24 76 -29 95 -10 17 17 25
3 13 -21 -15 -26 -53 -36 -81 -21 -16 9 -25 9 -33 1 -27 -27 62 -52 112 -31
38 15 51 53 51 141 0 62 -2 69 -20 69 -11 0 -20 -5 -20 -11 0 -5 -10 -3 -22 5
-25 18 -42 19 -75 6z m89 -55 c9 -21 8 -28 -7 -45 -32 -36 -85 -20 -85 25 0
49 71 65 92 20z"/>
<path d="M80 585 c-41 -44 -24 -125 30 -143 33 -12 75 -5 92 15 16 20 -8 36
-32 21 -21 -14 -66 -3 -74 17 -4 12 6 15 61 15 l66 0 -7 32 c-9 47 -33 68 -76
68 -26 0 -43 -7 -60 -25z m88 -17 c23 -23 12 -33 -30 -31 -24 1 -45 2 -47 2
-2 1 4 10 14 21 20 23 45 26 63 8z"/>
<path d="M258 525 c-3 -82 -2 -85 20 -85 20 0 22 4 22 59 0 66 18 93 48 74 12
-7 18 -27 20 -72 3 -53 6 -61 22 -61 18 0 20 7 20 69 0 50 -4 74 -16 85 -17
18 -69 22 -79 6 -3 -5 -11 -10 -16 -10 -6 0 -7 5 -4 10 3 6 -3 10 -14 10 -18
0 -20 -8 -23 -85z"/>
<path d="M470 590 c-24 -24 -26 -76 -5 -107 21 -30 62 -38 92 -18 32 21 40 13
19 -20 -18 -27 -53 -33 -87 -15 -15 9 -21 7 -26 -6 -8 -23 14 -34 70 -34 74 0
87 19 87 130 0 83 -1 90 -20 90 -11 0 -20 -5 -20 -12 0 -9 -3 -9 -12 0 -19 19
-76 14 -98 -8z m98 -22 c7 -7 12 -25 12 -40 0 -51 -81 -50 -88 1 -7 42 46 69
76 39z"/>
<path d="M670 525 c0 -78 2 -85 20 -85 18 0 20 7 20 85 0 78 -2 85 -20 85 -18
0 -20 -7 -20 -85z"/>
<path d="M1480 525 c0 -78 2 -85 20 -85 18 0 20 7 20 85 0 78 -2 85 -20 85
-18 0 -20 -7 -20 -85z"/>
<path d="M1410 210 c0 -113 1 -120 20 -120 19 0 20 7 20 120 0 113 -1 120 -20
120 -19 0 -20 -7 -20 -120z"/>
<path d="M1504 213 c3 -105 6 -118 22 -118 16 0 18 11 18 117 1 116 1 118 -21
118 -23 0 -23 -1 -19 -117z"/>
<path d="M502 246 c-76 -91 -75 -109 4 -104 53 3 54 2 54 -24 0 -21 5 -28 20
-28 15 0 20 7 20 25 0 16 6 25 15 25 8 0 15 9 15 20 0 11 -7 20 -15 20 -12 0
-15 14 -15 70 0 93 -16 93 -98 -4z m58 -28 c0 -42 -1 -43 -35 -44 -19 0 -35 1
-35 3 0 5 64 83 68 83 1 0 2 -19 2 -42z"/>
<path d="M770 196 c0 -82 13 -106 55 -106 13 0 31 7 39 16 15 14 16 14 16 0 0
-9 8 -16 20 -16 19 0 20 7 20 90 0 83 -1 90 -20 90 -18 0 -20 -7 -20 -57 0
-69 -9 -86 -41 -81 -22 3 -24 8 -27 71 -3 59 -5 67 -22 67 -18 0 -20 -7 -20
-74z"/>
<path d="M982 254 c-13 -9 -22 -26 -22 -40 0 -20 9 -29 45 -44 25 -11 45 -24
45 -29 0 -19 -21 -23 -52 -10 -25 10 -31 10 -38 -2 -22 -35 84 -53 115 -19 27
30 13 65 -36 84 -59 24 -44 52 17 32 33 -10 41 22 8 34 -36 14 -56 12 -82 -6z"/>
<path d="M1248 263 c-10 -2 -18 -13 -18 -23 0 -16 5 -18 35 -13 21 3 41 1 50
-7 24 -20 18 -25 -28 -22 -33 3 -47 -1 -61 -16 -41 -46 13 -108 74 -85 16 6
30 7 30 2 0 -5 10 -9 21 -9 20 0 21 4 17 71 -3 60 -8 74 -27 90 -22 18 -55 22
-93 12z m80 -110 c-4 -23 -54 -41 -69 -26 -21 21 -2 43 36 43 29 0 36 -3 33
-17z"/>
</g>
</svg>
