<?xml version="1.0" standalone="no"?>
<!DOCTYPE svg PUBLIC "-//W3C//DTD SVG 20010904//EN"
 "http://www.w3.org/TR/2001/REC-SVG-20010904/DTD/svg10.dtd">
<svg version="1.0" xmlns="http://www.w3.org/2000/svg"
 width="200.000000pt" height="200.000000pt" viewBox="0 0 200.000000 200.000000"
 preserveAspectRatio="xMidYMid meet">
<metadata>
Created by potrace 1.10, written by Peter Selinger 2001-2011
</metadata>
<g transform="translate(0.000000,200.000000) scale(0.100000,-0.100000)"
fill="#000000" stroke="none">
<path d="M172 1228 c-23 -23 -12 -47 34 -78 49 -34 53 -53 12 -58 -18 -2 -31
4 -42 20 l-16 22 0 -30 c0 -28 2 -29 45 -29 79 0 88 48 19 95 -47 33 -53 53
-17 58 13 2 27 -6 37 -20 l16 -22 0 27 c0 25 -3 27 -38 27 -21 0 -43 -5 -50
-12z"/>
<path d="M298 1233 c8 -3 12 -28 12 -73 0 -45 -4 -70 -12 -73 -7 -3 5 -6 27
-6 28 0 36 2 26 8 -8 5 -16 21 -18 35 -3 24 -1 26 37 26 38 0 40 -2 40 -29 0
-16 -6 -32 -12 -34 -7 -3 15 -6 50 -6 36 -1 61 3 58 8 -13 20 7 41 39 41 35 0
56 -27 33 -42 -8 -5 3 -8 27 -8 29 1 36 3 24 10 -8 5 -28 41 -44 79 -15 39
-31 71 -34 71 -3 0 -20 -33 -38 -73 -23 -52 -38 -73 -52 -75 -20 -3 -21 2 -21
66 0 47 4 72 13 75 6 3 -6 5 -28 5 -22 0 -34 -2 -27 -5 6 -2 12 -18 12 -34 0
-27 -2 -29 -40 -29 -33 0 -40 3 -40 19 0 11 7 27 16 35 14 15 12 16 -23 15
-21 0 -32 -3 -25 -6z m272 -85 c0 -5 -11 -8 -25 -8 -29 0 -29 0 -13 35 l12 26
13 -23 c7 -13 12 -26 13 -30z"/>
<path d="M648 1230 c20 -8 22 -16 22 -74 0 -42 -4 -66 -12 -69 -7 -3 1 -6 17
-6 20 0 25 2 17 8 -9 5 -12 25 -10 59 l3 52 49 -60 c28 -33 53 -60 58 -60 4 0
8 34 8 75 0 43 4 75 10 75 6 0 10 -7 10 -15 0 -8 3 -15 6 -15 3 0 12 7 20 15
9 8 20 15 25 15 14 0 11 -137 -3 -143 -7 -3 5 -5 27 -5 22 0 34 2 28 5 -14 5
-19 143 -5 143 4 0 18 -7 30 -16 21 -14 22 -14 22 5 0 20 -5 21 -107 20 -58 0
-101 -4 -94 -8 8 -5 11 -26 9 -56 l-3 -49 -45 57 c-37 46 -50 56 -75 56 -28 0
-28 -1 -7 -9z"/>
<path d="M1001 1214 c-22 -28 -27 -74 -11 -103 16 -31 65 -46 100 -31 37 15
50 37 50 83 0 72 -95 107 -139 51z m93 0 c19 -18 22 -94 4 -112 -19 -19 -66
-15 -78 7 -26 50 -3 121 40 121 10 0 26 -7 34 -16z"/>
<path d="M1158 1230 c19 -8 22 -17 22 -68 0 -32 -5 -63 -12 -70 -9 -9 -5 -12
18 -11 16 0 23 3 17 6 -8 3 -13 25 -13 60 l0 55 52 -61 c28 -34 55 -61 60 -61
5 0 7 4 3 10 -3 5 -3 39 1 75 6 53 10 65 24 65 13 0 25 -21 46 -79 15 -44 31
-78 35 -76 3 3 12 25 19 50 7 24 16 43 20 40 4 -2 13 -25 20 -50 7 -25 16 -42
20 -38 4 4 17 37 30 73 13 36 28 71 33 78 7 9 2 12 -19 12 -18 0 -24 -3 -16
-8 9 -7 8 -20 -6 -62 l-19 -55 -18 54 c-14 45 -15 55 -4 62 9 6 1 9 -25 9 -38
0 -39 0 -21 -20 16 -18 17 -24 4 -62 l-13 -41 -14 34 c-8 19 -15 46 -16 61 -1
27 -2 28 -61 27 -33 0 -54 -3 -47 -6 7 -3 12 -24 12 -56 l0 -52 -51 58 c-39
43 -57 57 -77 56 -26 0 -26 -1 -4 -9z"/>
<path d="M1584 1174 c-15 -37 -34 -73 -42 -80 -11 -12 -10 -14 11 -14 18 0 23
5 23 23 -1 18 5 22 35 25 29 2 37 -1 42 -17 3 -11 0 -22 -7 -25 -6 -2 6 -5 27
-5 35 -1 36 0 19 17 -9 9 -28 45 -42 80 -13 34 -28 62 -31 62 -4 0 -19 -30
-35 -66z m34 -32 c-27 -5 -30 1 -17 34 l11 29 13 -30 c12 -27 12 -30 -7 -33z"/>
<path d="M1715 1194 c36 -46 46 -98 23 -107 -7 -3 5 -5 27 -5 22 0 34 2 28 5
-28 11 -14 68 25 111 l39 42 -36 0 c-23 0 -31 -3 -23 -9 11 -6 10 -14 -6 -40
l-20 -32 -22 31 c-19 26 -20 34 -9 41 10 6 2 9 -23 9 l-38 0 35 -46z"/>
<path d="M140 1040 c0 -7 290 -10 850 -10 560 0 850 3 850 10 0 7 -290 10
-850 10 -560 0 -850 -3 -850 -10z"/>
<path d="M165 955 c0 -42 2 -45 28 -45 15 0 27 4 27 9 0 5 -9 7 -20 4 -14 -4
-20 0 -20 10 0 9 8 18 18 20 16 4 16 5 0 6 -10 0 -18 8 -18 17 0 11 6 15 20
11 11 -3 20 -1 20 4 0 5 -12 9 -27 9 -26 0 -28 -3 -28 -45z"/>
<path d="M245 980 c17 -18 17 -21 1 -45 -9 -14 -12 -25 -7 -25 5 0 11 7 15 15
3 8 10 15 16 15 5 0 10 -7 10 -15 0 -18 80 -21 97 -4 8 8 13 8 17 0 8 -13 43
-15 50 -3 3 5 -5 8 -17 8 -18 -1 -22 5 -22 29 0 25 4 30 23 29 12 0 22 3 22 8
0 5 -12 8 -27 6 -20 -2 -30 -11 -38 -33 -5 -16 -14 -33 -20 -37 -17 -13 -35
-9 -35 7 0 8 9 15 20 15 11 0 20 4 20 9 0 5 -9 7 -20 4 -14 -4 -20 0 -20 12 0
12 6 16 20 12 11 -3 20 -1 20 4 0 5 -20 9 -45 9 -36 0 -45 -3 -45 -17 -1 -17
-1 -17 -14 0 -7 9 -19 17 -26 17 -9 0 -8 -6 5 -20z m75 -25 c0 -39 -14 -46
-30 -14 -9 15 -8 24 1 35 19 23 29 16 29 -21z"/>
<path d="M460 966 c0 -64 61 -78 70 -16 3 24 11 36 24 38 16 3 18 -2 14 -37
-2 -25 1 -41 7 -41 6 0 9 17 7 42 -4 35 -2 40 12 35 9 -4 16 -2 16 3 0 6 -21
10 -47 10 l-48 0 0 -37 c0 -29 -4 -38 -19 -41 -16 -3 -18 1 -14 37 2 29 0 41
-9 41 -8 0 -13 -13 -13 -34z"/>
<path d="M618 955 c-2 -35 0 -45 12 -45 12 0 15 9 12 40 -5 52 4 51 28 -2 l19
-43 17 40 c9 22 18 43 21 48 2 4 0 7 -5 7 -5 0 -14 -15 -19 -32 l-10 -33 -13
33 c-9 23 -18 32 -35 32 -20 0 -23 -6 -27 -45z"/>
<path d="M738 955 c-3 -43 -2 -45 24 -45 32 0 39 9 32 38 -4 12 -11 19 -20 15
-9 -3 -14 1 -14 12 0 12 5 15 21 10 15 -5 19 -4 15 4 -4 6 -18 11 -31 11 -20
0 -23 -6 -27 -45z"/>
<path d="M835 989 c-4 -6 3 -21 16 -35 24 -26 20 -45 -6 -24 -12 10 -15 10
-15 -4 0 -22 49 -21 57 1 4 11 -1 22 -15 31 -25 16 -30 37 -7 28 8 -3 15 -1
15 4 0 13 -37 13 -45 -1z"/>
<path d="M898 955 l-3 -45 47 2 c35 0 45 4 41 14 -3 9 2 14 16 14 12 0 21 -6
21 -15 0 -10 10 -15 29 -15 25 0 28 3 24 23 l-5 22 16 -22 c10 -13 22 -23 28
-23 6 0 3 9 -7 20 -14 16 -16 23 -7 32 15 15 -3 38 -29 38 -14 0 -19 -9 -21
-42 l-4 -43 -21 45 -21 45 -16 -40 c-12 -31 -22 -41 -41 -43 -17 -1 -25 3 -25
14 0 10 6 14 15 10 9 -3 15 0 15 9 0 9 -6 12 -15 9 -10 -4 -15 0 -15 11 0 12
5 15 21 10 15 -5 19 -4 15 4 -4 6 -18 11 -31 11 -20 0 -23 -6 -27 -45z"/>
<path d="M1129 978 c-8 -15 -8 -27 0 -44 10 -23 44 -33 55 -16 3 5 -5 8 -17 8
-17 -1 -23 6 -25 27 -4 31 20 46 42 28 11 -9 15 -9 20 1 3 7 5 -6 3 -29 -2
-28 2 -43 9 -43 7 0 10 8 7 20 -4 16 0 20 17 20 17 0 21 -4 17 -20 -3 -11 0
-20 6 -20 7 0 12 18 12 45 0 31 -4 45 -13 45 -9 0 -11 -7 -7 -20 5 -16 2 -20
-15 -20 -17 0 -21 5 -17 19 4 16 -2 19 -39 19 -35 1 -46 -3 -55 -20z"/>
</g>
</svg>
