<?xml version="1.0" standalone="no"?>
<!DOCTYPE svg PUBLIC "-//W3C//DTD SVG 20010904//EN"
 "http://www.w3.org/TR/2001/REC-SVG-20010904/DTD/svg10.dtd">
<svg version="1.0" xmlns="http://www.w3.org/2000/svg"
 width="248.000000pt" height="300.000000pt" viewBox="0 0 248.000000 300.000000"
 preserveAspectRatio="xMidYMid meet">
<metadata>
Created by potrace 1.10, written by Peter Selinger 2001-2011
</metadata>
<g transform="translate(0.000000,300.000000) scale(0.100000,-0.100000)"
fill="#000000" stroke="none">
<path d="M530 1757 l0 -707 705 2 705 3 0 703 0 702 -705 3 -705 2 0 -708z
m1376 3 l-1 -670 -667 0 -668 0 0 670 0 670 669 0 669 0 -2 -670z"/>
<path d="M640 2220 c0 -23 5 -30 19 -30 43 0 82 -23 105 -64 14 -22 68 -151
121 -286 53 -135 125 -319 161 -410 l65 -165 129 0 130 0 46 120 c259 667 285
731 309 761 16 20 34 29 66 33 41 6 44 8 47 39 l3 32 -270 0 -271 0 0 -30 c0
-28 3 -30 36 -30 44 0 74 -15 74 -39 0 -10 -15 -38 -34 -62 -31 -40 -40 -63
-37 -96 2 -22 31 -14 78 22 51 39 65 42 83 20 19 -23 4 -63 -51 -128 -67 -80
-68 -137 -2 -96 31 19 36 20 50 6 20 -20 10 -47 -38 -103 -70 -81 -79 -115
-53 -201 5 -19 2 -23 -15 -23 -12 0 -24 6 -26 13 -42 121 -45 126 -85 138 -34
10 -41 9 -66 -10 -45 -35 -67 -25 -43 21 6 11 14 41 18 66 8 61 27 64 51 9 13
-28 28 -47 42 -50 12 -4 23 -5 24 -4 1 1 -14 36 -34 77 -35 71 -40 77 -102
108 -92 47 -127 83 -114 116 9 24 34 27 90 9 39 -12 57 -14 65 -6 16 16 -1 41
-70 101 -35 30 -61 62 -61 72 0 24 29 40 69 40 28 0 31 3 31 30 l0 30 -270 0
-270 0 0 -30z m415 -27 c-17 -41 -15 -51 20 -101 24 -35 31 -52 21 -52 -8 0
-28 -12 -45 -26 -54 -46 -33 -111 53 -167 l50 -32 -41 -8 c-55 -10 -88 -47
-88 -98 0 -46 24 -72 102 -114 50 -26 53 -27 84 -11 54 27 68 22 95 -39 14
-30 39 -65 56 -78 30 -24 30 -26 18 -63 -31 -96 -29 -94 -140 -94 -90 0 -100
2 -110 20 -6 12 -78 193 -161 403 -82 210 -162 401 -178 424 -16 23 -27 44
-24 47 4 3 71 6 151 6 133 0 144 -1 137 -17z m660 8 c3 -5 1 -13 -5 -16 -23
-14 -59 -85 -109 -215 -29 -74 -54 -136 -56 -138 -6 -6 -65 31 -65 40 0 5 14
27 30 50 57 79 29 164 -51 156 -22 -2 -39 -2 -39 -1 0 1 8 18 17 37 13 28 14
41 5 60 -6 13 -8 27 -5 30 10 10 271 7 278 -3z m-539 -444 c2 -2 -4 -29 -13
-61 -15 -54 -18 -57 -42 -51 -92 23 -75 135 18 121 18 -3 35 -7 37 -9z m278
-153 c-13 -29 -18 -34 -21 -21 -5 18 24 73 33 64 3 -3 -3 -22 -12 -43z"/>
<path d="M522 903 c8 -10 23 -40 33 -66 10 -26 22 -50 26 -53 7 -4 69 116 69
132 0 2 -9 4 -20 4 -12 0 -17 -5 -14 -13 2 -7 -2 -29 -10 -48 l-15 -34 -14 34
c-8 19 -13 41 -10 48 4 9 -5 13 -27 13 -31 0 -32 -1 -18 -17z"/>
<path d="M695 884 c-8 -20 -15 -42 -15 -48 0 -6 -7 -22 -16 -34 -14 -21 -14
-22 9 -22 21 0 23 4 19 26 -4 22 -2 25 19 22 18 -2 24 -9 23 -25 0 -19 5 -23
28 -23 28 0 28 0 12 25 -9 13 -22 43 -28 67 -17 54 -31 58 -51 12z"/>
<path d="M810 905 c8 -10 11 -35 8 -70 -4 -53 -4 -55 20 -55 20 0 22 3 13 14
-7 8 -11 31 -9 50 l3 35 40 -49 c22 -27 43 -49 48 -50 4 0 7 27 7 60 0 33 4
60 10 60 6 0 10 5 10 10 0 6 -13 10 -29 10 -29 0 -30 0 -15 -27 7 -16 14 -37
13 -48 0 -16 -9 -10 -42 28 -28 30 -51 47 -66 47 -20 0 -21 -2 -11 -15z"/>
<path d="M998 908 c16 -16 16 -100 0 -116 -9 -9 -1 -12 39 -12 44 0 55 4 72
26 27 35 26 59 -4 89 -19 20 -34 25 -72 25 -36 0 -44 -3 -35 -12z m94 -33 c16
-36 -3 -75 -37 -75 -23 0 -25 3 -25 50 0 47 2 50 25 50 17 0 29 -8 37 -25z"/>
<path d="M1171 885 c6 -23 6 -47 0 -70 l-9 -35 54 0 c49 0 54 2 54 22 0 17 -3
19 -12 10 -19 -19 -58 -15 -58 6 0 26 10 33 31 21 14 -7 19 -6 19 4 0 8 3 29
6 46 l7 31 -51 0 -50 0 9 -35z m72 9 c11 -11 -5 -34 -24 -34 -12 0 -19 7 -19
20 0 19 28 28 43 14z"/>
<path d="M1308 909 c15 -16 16 -101 0 -117 -9 -9 -5 -12 20 -12 30 0 31 1 21
26 -15 40 -1 43 29 6 15 -18 36 -32 46 -32 18 0 17 3 -8 29 -25 26 -26 31 -14
50 21 34 0 55 -58 59 -39 3 -47 1 -36 -9z m72 -28 c0 -22 -15 -35 -29 -27 -13
9 -1 46 15 46 8 0 14 -9 14 -19z"/>
<path d="M1468 908 c16 -16 15 -101 0 -117 -11 -10 -3 -12 36 -9 56 3 79 25
59 56 -7 13 -8 24 -1 37 15 25 -14 45 -66 45 -31 0 -37 -3 -28 -12z m67 -28
c0 -8 -8 -16 -17 -18 -13 -2 -18 3 -18 18 0 15 5 20 18 18 9 -2 17 -10 17 -18z
m5 -45 c15 -18 5 -35 -21 -35 -14 0 -19 7 -19 25 0 28 21 33 40 10z"/>
<path d="M1618 908 c7 -7 12 -33 12 -58 0 -25 -5 -51 -12 -58 -9 -9 -5 -12 20
-12 31 0 42 13 22 25 -5 3 -10 26 -10 51 0 24 5 44 10 44 6 0 10 5 10 10 0 6
-14 10 -32 10 -25 0 -29 -3 -20 -12z"/>
<path d="M1718 908 c7 -7 12 -33 12 -58 0 -25 -5 -51 -12 -58 -9 -9 1 -12 45
-12 52 0 57 2 57 22 0 17 -3 19 -12 10 -7 -7 -20 -12 -30 -12 -15 0 -18 8 -18
48 0 26 5 53 12 60 9 9 3 12 -27 12 -30 0 -36 -3 -27 -12z"/>
<path d="M1824 909 c-3 -6 -1 -16 5 -22 8 -8 11 -8 11 1 0 7 9 12 20 12 17 0
20 -7 20 -48 0 -26 -5 -53 -12 -60 -9 -9 -3 -12 28 -12 31 1 36 3 22 11 -13 7
-18 23 -18 59 0 43 3 50 19 50 11 0 22 -6 24 -12 3 -7 6 -3 6 10 1 20 -3 22
-58 22 -33 0 -63 -5 -67 -11z"/>
<path d="M530 616 c0 -61 16 -86 55 -86 13 0 31 10 39 22 18 25 22 118 6 118
-5 0 -10 -22 -10 -48 0 -50 -12 -72 -41 -72 -21 0 -29 20 -29 76 0 24 -4 44
-10 44 -5 0 -10 -24 -10 -54z"/>
<path d="M710 599 c0 -44 4 -68 10 -64 6 3 10 27 10 53 l0 47 35 -53 c20 -29
40 -50 45 -47 13 8 13 135 1 135 -6 0 -11 -23 -13 -52 l-3 -52 -32 52 c-18 29
-37 52 -43 52 -6 0 -10 -28 -10 -71z"/>
<path d="M890 600 c0 -40 4 -70 10 -70 6 0 10 30 10 70 0 40 -4 70 -10 70 -6
0 -10 -30 -10 -70z"/>
<path d="M970 667 c0 -20 62 -138 69 -131 10 12 51 110 51 123 0 27 -18 6 -34
-39 -10 -28 -21 -48 -25 -45 -3 4 -12 25 -21 47 -8 23 -21 43 -27 46 -7 2 -13
1 -13 -1z"/>
<path d="M1152 603 l3 -68 38 -3 c21 -2 37 1 37 7 0 6 -14 11 -31 11 -26 0
-30 3 -27 23 2 18 8 21 31 19 15 -2 27 1 27 7 0 6 -13 11 -30 11 -23 0 -30 4
-30 20 0 16 7 20 30 20 17 0 30 5 30 10 0 6 -18 10 -40 10 l-41 0 3 -67z"/>
<path d="M1300 601 c0 -41 4 -71 10 -71 6 0 10 14 10 30 0 18 5 30 13 30 7 0
21 -13 30 -30 10 -16 22 -30 28 -30 14 0 11 12 -11 40 -17 23 -18 26 -2 43 23
26 4 51 -42 55 l-36 3 0 -70z m59 50 c19 -12 6 -41 -19 -41 -13 0 -20 7 -20
18 0 31 14 39 39 23z"/>
<path d="M1460 650 c-8 -15 -6 -24 10 -40 11 -11 25 -20 30 -20 6 0 10 -10 10
-21 0 -19 -4 -21 -30 -15 -17 3 -30 1 -30 -5 0 -14 27 -22 54 -15 44 11 43 60
-1 77 -32 12 -28 45 5 41 12 -2 22 2 22 7 0 20 -59 12 -70 -9z"/>
<path d="M1608 604 c-3 -68 -1 -77 13 -68 12 7 11 134 0 134 -5 0 -11 -30 -13
-66z"/>
<path d="M1690 660 c0 -5 9 -10 20 -10 18 0 20 -7 20 -54 0 -30 5 -58 10 -61
6 -4 10 17 10 54 0 54 2 61 19 61 11 0 23 5 26 10 4 6 -15 10 -49 10 -31 0
-56 -4 -56 -10z"/>
<path d="M1840 663 c0 -5 9 -19 20 -33 11 -14 20 -41 20 -62 0 -21 5 -38 10
-38 6 0 10 15 10 34 0 23 9 45 26 66 15 17 23 34 19 38 -4 4 -17 -6 -30 -23
-26 -31 -26 -31 -44 3 -11 21 -31 31 -31 15z"/>
</g>
</svg>
